<svg width="937" height="74" viewBox="0 0 937 74" fill="none" xmlns="http://www.w3.org/2000/svg">
<path d="M58.559 73H42.197L23.714 40.276L14.422 51.386V73H0.383V1.088H14.422V32.398L39.773 1.088H56.842L33.006 29.671L58.559 73ZM81.5909 73H67.5519V1.088H81.5909V73ZM153.37 73H140.846L112.364 28.863V73H98.3254V1.088H110.849L139.331 45.124V1.088H153.37V73ZM220.832 37.044C220.832 44.8547 220.529 50.275 219.923 53.305C219.048 58.2877 216.96 62.4287 213.661 65.728C208.409 70.98 201.945 73.606 194.269 73.606C186.526 73.606 180.028 70.98 174.776 65.728C171.544 62.496 169.457 58.355 168.514 53.305C167.975 50.3423 167.706 44.922 167.706 37.044C167.706 29.166 167.975 23.7457 168.514 20.783C169.457 15.733 171.544 11.592 174.776 8.36C180.028 3.10799 186.526 0.481995 194.269 0.481995C201.945 0.481995 208.409 3.10799 213.661 8.36C216.96 11.6593 219.048 15.8003 219.923 20.783C220.529 23.813 220.832 29.2333 220.832 37.044ZM206.793 37.044C206.793 31.5227 206.726 28.0213 206.591 26.54C206.187 22.096 205.076 18.864 203.258 16.844C200.969 14.2853 197.972 13.006 194.269 13.006C190.498 13.006 187.468 14.2853 185.179 16.844C183.428 18.864 182.351 22.096 181.947 26.54C181.812 27.752 181.745 31.2533 181.745 37.044C181.745 42.8347 181.812 46.336 181.947 47.548C182.351 51.992 183.428 55.224 185.179 57.244C187.468 59.8027 190.498 61.082 194.269 61.082C198.444 61.082 201.709 59.466 204.066 56.234C205.884 53.7427 206.793 47.346 206.793 37.044ZM281.589 51.79C281.589 58.5907 279.064 63.9437 274.014 67.849C269.031 71.687 262.668 73.606 254.925 73.606C243.68 73.606 234.927 70.4413 228.665 64.112L237.755 55.022C241.795 59.062 247.586 61.082 255.127 61.082C263.611 61.082 267.853 58.1193 267.853 52.194C267.853 49.5007 267.146 47.5143 265.732 46.235C264.318 44.8883 262.163 44.013 259.268 43.609L250.582 42.397C237.856 40.6463 231.493 33.9467 231.493 22.298C231.493 15.7667 233.749 10.5147 238.26 6.54199C242.771 2.50199 248.865 0.481995 256.541 0.481995C266.237 0.481995 273.98 3.27633 279.771 8.86499L270.883 17.652C267.449 14.3527 262.534 12.703 256.137 12.703C252.568 12.703 249.808 13.5783 247.855 15.329C245.97 17.0123 245.027 19.167 245.027 21.793C245.027 23.8803 245.768 25.631 247.249 27.045C248.798 28.459 250.986 29.368 253.814 29.772L262.298 30.984C268.425 31.8593 273.004 33.711 276.034 36.539C279.737 40.0403 281.589 45.124 281.589 51.79ZM347.221 73H333.182V42.902H308.841V73H294.802V1.088H308.841V30.479H333.182V1.088H347.221V73ZM377.983 73H363.944V1.088H377.983V73ZM440.975 13.612H422.189V73H408.15V13.612H389.364V1.088H440.975V13.612ZM507.967 73H493.322L489.08 60.274H463.527L459.184 73H444.539L470.698 1.088H481.707L507.967 73ZM485.343 48.457L476.556 22.298L467.466 48.457H485.343ZM586.557 13.612H567.771V73H553.732V13.612H534.946V1.088H586.557V13.612ZM653.549 73H638.904L634.662 60.274H609.109L604.766 73H590.121L616.28 1.088H627.289L653.549 73ZM630.925 48.457L622.138 22.298L613.048 48.457H630.925ZM720.582 73H704.22L685.737 40.276L676.445 51.386V73H662.406V1.088H676.445V32.398L701.796 1.088H718.865L695.029 29.671L720.582 73ZM785.125 73H770.48L766.238 60.274H740.685L736.342 73H721.697L747.856 1.088H758.865L785.125 73ZM762.501 48.457L753.714 22.298L744.624 48.457H762.501ZM840.443 51.79C840.443 58.5907 837.918 63.9437 832.868 67.849C827.885 71.687 821.522 73.606 813.779 73.606C802.534 73.606 793.781 70.4413 787.519 64.112L796.609 55.022C800.649 59.062 806.439 61.082 813.981 61.082C822.465 61.082 826.707 58.1193 826.707 52.194C826.707 49.5007 826 47.5143 824.586 46.235C823.172 44.8883 821.017 44.013 818.122 43.609L809.436 42.397C796.71 40.6463 790.347 33.9467 790.347 22.298C790.347 15.7667 792.602 10.5147 797.114 6.54199C801.625 2.50199 807.719 0.481995 815.395 0.481995C825.091 0.481995 832.834 3.27633 838.625 8.86499L829.737 17.652C826.303 14.3527 821.387 12.703 814.991 12.703C811.422 12.703 808.661 13.5783 806.709 15.329C804.823 17.0123 803.881 19.167 803.881 21.793C803.881 23.8803 804.621 25.631 806.103 27.045C807.651 28.459 809.84 29.368 812.668 29.772L821.152 30.984C827.279 31.8593 831.858 33.711 834.888 36.539C838.591 40.0403 840.443 45.124 840.443 51.79ZM906.074 73H892.035V42.902H867.694V73H853.655V1.088H867.694V30.479H892.035V1.088H906.074V73ZM936.836 73H922.797V1.088H936.836V73Z" fill="black"/>
</svg>
