<svg width="214" height="21" viewBox="0 0 214 21" fill="none" xmlns="http://www.w3.org/2000/svg">
<path d="M17.598 1.048L13.776 16H12.285L8.967 4.03L5.649 16H4.158L0.336 1.048H2.037L4.956 13.102L8.253 1.048H9.681L12.978 13.102L15.897 1.048H17.598ZM31.4688 16H22.1868V1.048H31.4688V2.476H23.7828V7.747H30.3348V9.175H23.7828V14.572H31.4688V16ZM47.1476 11.863C47.1476 13.193 46.7416 14.215 45.9296 14.929C45.1316 15.643 44.0536 16 42.6956 16H36.8786V1.048H42.5066C43.8226 1.048 44.8866 1.405 45.6986 2.119C46.5106 2.833 46.9166 3.806 46.9166 5.038C46.9166 5.808 46.7066 6.487 46.2866 7.075C45.8806 7.663 45.3556 8.076 44.7116 8.314C46.3356 8.916 47.1476 10.099 47.1476 11.863ZM45.3206 5.059C45.3206 4.205 45.0476 3.561 44.5016 3.127C43.9696 2.693 43.2626 2.476 42.3806 2.476H38.4746V7.663H42.3806C43.2486 7.663 43.9556 7.446 44.5016 7.012C45.0476 6.564 45.3206 5.913 45.3206 5.059ZM45.5516 11.821C45.5516 10.981 45.2786 10.316 44.7326 9.826C44.2006 9.336 43.4726 9.091 42.5486 9.091H38.4746V14.572H42.5486C43.4726 14.572 44.2006 14.327 44.7326 13.837C45.2786 13.333 45.5516 12.661 45.5516 11.821ZM72.2635 16H70.2685L68.9245 14.362C67.6645 15.538 66.1945 16.126 64.5145 16.126C63.0725 16.126 61.9245 15.734 61.0705 14.95C60.2165 14.152 59.7895 13.095 59.7895 11.779C59.7895 10.771 60.1255 9.882 60.7975 9.112C61.2175 8.622 61.9595 8.02 63.0235 7.306C62.5055 6.676 62.1415 6.193 61.9315 5.857C61.5815 5.241 61.4065 4.639 61.4065 4.051C61.4065 3.155 61.7145 2.413 62.3305 1.825C62.9605 1.223 63.7515 0.921999 64.7035 0.921999C65.6415 0.921999 66.4185 1.223 67.0345 1.825C67.6505 2.427 67.9585 3.176 67.9585 4.072C67.9585 5.094 67.4055 5.983 66.2995 6.739C66.0475 6.907 65.6765 7.159 65.1865 7.495L69.0085 12.094C69.5545 11.268 69.8345 10.127 69.8485 8.671H71.3605C71.3325 10.645 70.8705 12.171 69.9745 13.249L72.2635 16ZM66.4675 4.072C66.4675 3.568 66.2995 3.148 65.9635 2.812C65.6275 2.462 65.2075 2.287 64.7035 2.287C64.1995 2.287 63.7865 2.455 63.4645 2.791C63.1425 3.113 62.9815 3.526 62.9815 4.03C62.9815 4.576 63.4295 5.395 64.3255 6.487C64.4795 6.389 64.7455 6.207 65.1235 5.941C66.0195 5.325 66.4675 4.702 66.4675 4.072ZM68.0215 13.27L63.9055 8.314C63.0375 8.916 62.4495 9.385 62.1415 9.721C61.6095 10.309 61.3435 10.981 61.3435 11.737C61.3435 12.619 61.6375 13.34 62.2255 13.9C62.8135 14.446 63.5695 14.719 64.4935 14.719C65.7675 14.719 66.9435 14.236 68.0215 13.27ZM95.5164 11.065C95.5164 12.549 95.0194 13.767 94.0254 14.719C93.0454 15.657 91.7994 16.126 90.2874 16.126C88.7754 16.126 87.5294 15.657 86.5494 14.719C85.5694 13.767 85.0794 12.549 85.0794 11.065V1.048H86.6754V10.939C86.6754 12.073 87.0044 12.983 87.6624 13.669C88.3204 14.355 89.1954 14.698 90.2874 14.698C91.3794 14.698 92.2544 14.355 92.9124 13.669C93.5844 12.983 93.9204 12.073 93.9204 10.939V1.048H95.5164V11.065ZM103.32 16H101.724V1.048H103.32V16ZM127.455 8.356C127.455 9.924 127.406 11.03 127.308 11.674C127.112 12.948 126.671 13.928 125.985 14.614C125.061 15.538 123.801 16 122.205 16H117.081V1.048H122.205C123.801 1.048 125.061 1.51 125.985 2.434C126.671 3.12 127.112 4.044 127.308 5.206C127.406 5.808 127.455 6.858 127.455 8.356ZM125.859 8.356C125.859 7.068 125.824 6.172 125.754 5.668C125.628 4.744 125.334 4.044 124.872 3.568C124.172 2.84 123.192 2.476 121.932 2.476H118.677V14.572H121.932C123.192 14.572 124.172 14.208 124.872 13.48C125.32 13.018 125.614 12.262 125.754 11.212C125.824 10.652 125.859 9.7 125.859 8.356ZM140.954 11.233H133.982C133.982 12.367 134.241 13.249 134.759 13.879C135.291 14.495 136.047 14.803 137.027 14.803C138.049 14.803 138.952 14.411 139.736 13.627L140.765 14.53C140.205 15.09 139.666 15.489 139.148 15.727C138.546 15.993 137.825 16.126 136.985 16.126C135.571 16.126 134.479 15.699 133.709 14.845C132.883 13.949 132.47 12.612 132.47 10.834C132.47 9.168 132.848 7.873 133.604 6.949C134.36 6.011 135.396 5.542 136.712 5.542C138.042 5.542 139.078 5.99 139.82 6.886C140.576 7.782 140.954 9 140.954 10.54V11.233ZM139.442 10.099C139.4 9.371 139.295 8.797 139.127 8.377C138.693 7.341 137.888 6.823 136.712 6.823C135.536 6.823 134.731 7.341 134.297 8.377C134.129 8.797 134.024 9.371 133.982 10.099H139.442ZM153.728 12.976C153.728 13.956 153.343 14.726 152.573 15.286C151.817 15.846 150.802 16.126 149.528 16.126C147.736 16.126 146.322 15.629 145.286 14.635L146.294 13.627C147.05 14.425 148.121 14.824 149.507 14.824C151.341 14.824 152.258 14.215 152.258 12.997C152.258 12.087 151.684 11.583 150.536 11.485L148.835 11.338C146.777 11.156 145.748 10.232 145.748 8.566C145.748 7.642 146.098 6.907 146.798 6.361C147.512 5.815 148.429 5.542 149.549 5.542C151.117 5.542 152.356 5.913 153.266 6.655L152.279 7.642C151.565 7.096 150.648 6.823 149.528 6.823C147.988 6.823 147.218 7.39 147.218 8.524C147.218 9.42 147.82 9.924 149.024 10.036L150.683 10.183C152.713 10.365 153.728 11.296 153.728 12.976ZM160.408 2.728H158.707V1.027H160.408V2.728ZM160.303 16H158.791V5.668H160.303V16ZM173.826 16.315C173.826 17.617 173.441 18.681 172.671 19.507C171.901 20.333 170.851 20.746 169.521 20.746C168.765 20.746 168.128 20.641 167.61 20.431C167.106 20.221 166.574 19.864 166.014 19.36L167.001 18.394C167.421 18.772 167.778 19.031 168.072 19.171C168.45 19.339 168.919 19.423 169.479 19.423C170.431 19.423 171.152 19.115 171.642 18.499C172.09 17.939 172.314 17.19 172.314 16.252V14.635C171.614 15.531 170.648 15.979 169.416 15.979C168.366 15.979 167.533 15.671 166.917 15.055C166.077 14.215 165.657 12.78 165.657 10.75C165.657 8.72 166.077 7.285 166.917 6.445C167.519 5.843 168.359 5.542 169.437 5.542C170.683 5.542 171.649 5.99 172.335 6.886V5.668H173.826V16.315ZM172.314 10.75C172.314 9.574 172.167 8.685 171.873 8.083C171.481 7.285 170.774 6.886 169.752 6.886C168.73 6.886 168.016 7.285 167.61 8.083C167.316 8.685 167.169 9.574 167.169 10.75C167.169 11.926 167.316 12.808 167.61 13.396C168.016 14.208 168.73 14.614 169.752 14.614C170.774 14.614 171.481 14.208 171.873 13.396C172.167 12.808 172.314 11.926 172.314 10.75ZM187.832 16H186.32V9.637C186.32 7.803 185.473 6.886 183.779 6.886C182.981 6.886 182.351 7.124 181.889 7.6C181.441 8.076 181.217 8.755 181.217 9.637V16H179.705V5.668H181.217V6.802C181.959 5.962 182.925 5.542 184.115 5.542C185.221 5.542 186.103 5.864 186.761 6.508C187.475 7.208 187.832 8.167 187.832 9.385V16ZM201.514 11.233H194.542C194.542 12.367 194.801 13.249 195.319 13.879C195.851 14.495 196.607 14.803 197.587 14.803C198.609 14.803 199.512 14.411 200.296 13.627L201.325 14.53C200.765 15.09 200.226 15.489 199.708 15.727C199.106 15.993 198.385 16.126 197.545 16.126C196.131 16.126 195.039 15.699 194.269 14.845C193.443 13.949 193.03 12.612 193.03 10.834C193.03 9.168 193.408 7.873 194.164 6.949C194.92 6.011 195.956 5.542 197.272 5.542C198.602 5.542 199.638 5.99 200.38 6.886C201.136 7.782 201.514 9 201.514 10.54V11.233ZM200.002 10.099C199.96 9.371 199.855 8.797 199.687 8.377C199.253 7.341 198.448 6.823 197.272 6.823C196.096 6.823 195.291 7.341 194.857 8.377C194.689 8.797 194.584 9.371 194.542 10.099H200.002ZM213.721 6.508L212.608 7.642C212.104 7.138 211.509 6.886 210.823 6.886C210.081 6.886 209.479 7.152 209.017 7.684C208.569 8.202 208.345 8.86 208.345 9.658V16H206.833V5.668H208.345V6.928C208.947 6.004 209.913 5.542 211.243 5.542C212.251 5.542 213.077 5.864 213.721 6.508Z" fill="#BDBDBD"/>
</svg>
